<mxfile host="app.diagrams.net" modified="2024-04-02T18:56:13.857Z" agent="Mozilla/5.0 (Windows NT 10.0; Win64; x64; rv:124.0) Gecko/20100101 Firefox/124.0" version="24.2.0" etag="c02bEiYD_IRn046IQqii" type="github">
  <diagram name="Page-1" id="1sw4X6GhzSgNw2-t5zqx">
    <mxGraphModel>
      <root>
        <mxCell id="0" />
        <mxCell id="1" parent="0" />
      </root>
    </mxGraphModel>
  </diagram>
</mxfile>
